# xmcd CD database file
#
# Track frame offsets:
#	150
#	23122
#	44177
#	61037
#	77890
#	97410
#	116700
#	137495
#	158605
#
# Disc length: 2380 seconds
#
# Revision: 0
# Processed by: cddbd v1.5.1PL0 Copyright (c) Steve Scherf et al.
# Submitted via: CDex 1.51
#
DISCID=77094a09
DTITLE=稲垣潤一 - 246：3AM
DYEAR=1982
DGENRE=JPop
TTITLE0=ジンで朝まで
TTITLE1=バハマ・エアポート
TTITLE2=海鳴りに誘われて
TTITLE3=蒼い追憶
TTITLE4=月曜日にはバラを
TTITLE5=246：3AM
TTITLE6=雨のリグレット
TTITLE7=ハート悲しく
TTITLE8=日暮山
EXTD=YEAR: 1982
EXTT0=
EXTT1=
EXTT2=
EXTT3=
EXTT4=
EXTT5=
EXTT6=
EXTT7=
EXTT8=
PLAYORDER=
